<svg xmlns="http://www.w3.org/2000/svg" xmlns:xlink="http://www.w3.org/1999/xlink" viewBox="0 0 841.89 606.71"><defs><style>.cls-1{fill:url(#linear-gradient);}</style><linearGradient id="linear-gradient" x1="82.38" y1="50.01" x2="633.51" y2="601.13" gradientUnits="userSpaceOnUse"><stop offset="0" stop-color="#00d2e1"/><stop offset="1" stop-color="#f0f"/></linearGradient></defs><g id="Layer_2" data-name="Layer 2"><g id="Layer_1-2" data-name="Layer 1"><path class="cls-1" d="M519.05,232.21q16.07,14.26,16.07,39.89a64.82,64.82,0,0,1-5.92,27.56q-5.93,12.82-19.1,20.8t-33.25,8H451v64.31H427.53V217.94h46.91Q503,217.94,519.05,232.21Zm-21.76,68.18a30.69,30.69,0,0,0,11.24-12.94,36.53,36.53,0,0,0,3.38-14.87,33.82,33.82,0,0,0-8.22-22.36q-8.22-9.79-25.63-9.79H451v65.28h25.87Q489.42,305.71,497.29,300.39ZM285.72,217.33H222V393h63.68Zm-35.89,8.1V384.91H230.14V225.55Zm8.1,0h19.69V384.91H257.93Zm-88.42,142.2V322.3h-3.85v46.93l-14.22,5.89V247l6.17,2.55,1.47-3.55-7.64-3.17V151.36H328.37l6.5,14.22h-12.4v3.84H455.09l19.75-19.19,82.73-82.69-2.72-2.72L528,91.65H313.14V0h-3.85V91.65H222.37L214.2,71.94l-3.55,1.47,15.12,36.5,1.78-.74v1.93h80.67l-16.64,36.41H245.52L241,136.59l-3.55,1.47,3.91,9.45h-91L67.57,64.82l-2.72,2.72L91.7,94.38V309.13H0V313H109.23v-1.92h1.92V113.82l36.44,36.41v91l-6-2.48-1.47,3.55,7.46,3.09V376.71l-10.93,4.53,1.47,3.55,9.46-3.92v91l-36.44,36.42V394.67h-1.92l-.74-1.77L72,408l1.47,3.56L91.7,404V527.73L64.85,554.56l2.72,2.72,26.85-26.83H309.29v76.26h3.85V530.45h86.91l8.17,19.71,3.56-1.47L396.66,512.2l-3.56,1.47,5.36,12.93H313.14V513.35l17.7-38.76h46.07l4.52,10.92L385,484l-3.92-9.45h91.05l82.73,82.69,2.72-2.72L474.13,471.1l-3.14-.36H294.05l-6.49-14.21H300v-3.85H169.51V371.8M454,165.58H339.1l-6.5-14.22h42.71l-2.56,6.17,3.56,1.47,3.17-7.64h88.79Zm18.08-18.07H381.07l2.48-6L380,140.05l-3.09,7.46H330.84L314.21,111.1H508.55Zm-159-52h211L512.4,107.25H313.14Zm-84.31,11.75L224,95.5h85.32v11.75Zm82.38,6.55,15.4,33.71h-30.8ZM107.3,309.13H95.55V98.22L107.3,110Zm61.08,147.4h115l6.49,14.21H247.11l2.56-6.17-3.55-1.47L243,470.74H154.16Zm-16.94-77.25,14.22-5.89V453.8L151.44,468Zm-1.13,95.31h91l-2.48,6,3.56,1.47,3.09-7.46h46.06L308.22,511H113.88ZM95.55,402.42l11.75-4.87V512.14L95.55,523.88ZM309.29,526.6h-211L110,514.85H309.29Zm1.92-18.3-15.4-33.71h30.8Zm-1-205.95-76-85H222l0,175.41,7.91-.07.36-156,79.9,89.08,64.43-64.42V392.72h23.5V214.35Zm286.5-91.09L520.56,392.75h23.21l18.62-45.94h68.67l18.61,45.94h23.21ZM570.85,326.5l25.87-63.83h0l25.87,63.83ZM765.73,211.26,689.56,392.75h23.22l18.61-45.94h68.67l18.62,45.94h23.21ZM739.86,326.5l25.87-63.83h0L791.6,326.5Z"/></g></g></svg>