<svg xmlns="http://www.w3.org/2000/svg" width="344.268" height="88.528" viewBox="0 0 344.268 88.528">
  <g id="Group_131" data-name="Group 131" transform="translate(14.503 -34)">
    <g id="Group_130" data-name="Group 130" transform="translate(-14.503 34)">
      <g id="Group_125" data-name="Group 125" transform="translate(0 5.473)">
        <g id="Group_123" data-name="Group 123" transform="translate(31.935 0)">
          <path id="Path_8" data-name="Path 8" d="M474.718,218.334c-13.708,0-24.816,6.944-24.816,15.508s11.108,15.508,24.816,15.508,24.808-6.944,24.808-15.508S488.418,218.334,474.718,218.334Zm.271,25.406c-11.97,0-21.667-5.3-21.667-11.824s9.7-11.816,21.667-11.816,21.666,5.29,21.666,11.816S486.958,243.74,474.989,243.74Z" transform="translate(-449.902 -218.334)" fill="#b29e5f"/>
          <path id="Path_9" data-name="Path 9" d="M475.814,235.048q.349-.01.682-.05l.619,2.371,4.075,6.775-2.643-6.986-1.623-2.223c.22-.039.432-.087.635-.144l1.716,2.2,7.131,5.965-5.847-6.373-2.616-1.917a5.027,5.027,0,0,0,.546-.23l2.7,1.884,9.7,4.749-8.653-5.325-3.431-1.48a3.225,3.225,0,0,0,.419-.3l3.492,1.436,11.611,3.21L483.456,234.7l-4.012-.942a2.047,2.047,0,0,0,.264-.348l4.05.89,12.728,1.451-12.344-2.237-4.319-.34a1.356,1.356,0,0,0,.089-.374l4.332.285,12.979-.408-12.979-.407-4.332.285a1.362,1.362,0,0,0-.089-.375l4.319-.339,12.344-2.237-12.728,1.451-4.05.891a2.018,2.018,0,0,0-.264-.348l4.012-.942,10.869-3.915-11.611,3.21-3.492,1.436a3.234,3.234,0,0,0-.419-.3l3.431-1.48,8.653-5.326-9.7,4.75-2.7,1.883a5.193,5.193,0,0,0-.546-.23l2.616-1.917,5.847-6.373-7.131,5.966-1.716,2.2c-.2-.057-.415-.106-.635-.145l1.623-2.222,2.643-6.986-4.075,6.775-.619,2.37c-.222-.026-.449-.043-.682-.05l.52-2.377-.742-7.124-.742,7.124.52,2.377c-.234.007-.461.024-.682.05l-.619-2.37-4.075-6.775,2.643,6.986,1.622,2.222c-.22.039-.432.088-.635.145l-1.716-2.2-7.132-5.966,5.847,6.373,2.616,1.917a5.116,5.116,0,0,0-.545.23l-2.7-1.883-9.7-4.75,8.653,5.326,3.431,1.48a3.3,3.3,0,0,0-.419.3l-3.492-1.436-11.611-3.21,10.869,3.915,4.012.942a2.013,2.013,0,0,0-.263.348l-4.049-.891L454.7,229.6l12.344,2.237,4.319.339a1.361,1.361,0,0,0-.089.375l-4.332-.285-12.979.407,12.979.408,4.332-.285a1.356,1.356,0,0,0,.089.374l-4.319.34L454.7,235.75l12.729-1.451,4.049-.89a2.042,2.042,0,0,0,.263.348l-4.012.942-10.869,3.915,11.611-3.21,3.492-1.436a3.285,3.285,0,0,0,.419.3l-3.431,1.48-8.653,5.325,9.7-4.749,2.7-1.884a4.954,4.954,0,0,0,.545.23l-2.616,1.917-5.847,6.373,7.132-5.965,1.716-2.2c.2.057.415.105.635.144l-1.622,2.223-2.643,6.986,4.075-6.775.619-2.371q.332.039.682.05l-.52,2.378.742,7.124.742-7.124Z" transform="translate(-450.913 -218.949)" fill="#b29e5f"/>
        </g>
        <g id="Group_124" data-name="Group 124" transform="translate(0 18.348)">
          <path id="Path_10" data-name="Path 10" d="M464.3,269.19v32.861l-7.594-.864V275.351a11.55,11.55,0,0,0-6.579-10.418,32.889,32.889,0,0,1-7.685-4.979,12.155,12.155,0,0,1-1.229-16.893.789.789,0,0,1,.607-.289.816.816,0,0,1,.816.759v.014c.513,6.261,6.014,11.7,14.069,14.8a.289.289,0,0,0,.071.023A11.621,11.621,0,0,1,464.3,269.19Z" transform="translate(-415.093 -242.771)" fill="#b29e5f"/>
          <path id="Path_11" data-name="Path 11" d="M448.38,280.51v23.173q-3.589-.769-6.977-1.8V285.523a9.951,9.951,0,0,0-5.217-8.9,28.975,28.975,0,0,1-6.474-4.765,10.568,10.568,0,0,1-3.08-6.617v-.024a10.668,10.668,0,0,1,2.891-8.225.672.672,0,0,1,.546-.218.706.706,0,0,1,.646.517.507.507,0,0,1,.033.19l0,.009c.123,5.515,4.651,10.571,11.553,13.7a.258.258,0,0,0,.057.024,10.227,10.227,0,0,1,5.985,8.169A10.917,10.917,0,0,1,448.38,280.51Z" transform="translate(-412.16 -246.26)" fill="#b29e5f"/>
          <path id="Path_12" data-name="Path 12" d="M433.969,290.07v13.224c-2.207-.83-4.334-1.742-6.351-2.729v-6.65a8.548,8.548,0,0,0-3.859-7.333,24.883,24.883,0,0,1-5.259-4.547,9.158,9.158,0,0,1-2.212-5.891v-.014a9.255,9.255,0,0,1,3.052-6.93.6.6,0,0,1,.484-.156.642.642,0,0,1,.493.384.662.662,0,0,1,.043.275v.024c-.266,4.761,3.308,9.422,9.032,12.587.015.01.034.014.048.024A8.943,8.943,0,0,1,432.5,285.1,8.729,8.729,0,0,1,433.969,290.07Z" transform="translate(-409.591 -249.317)" fill="#b29e5f"/>
          <path id="Path_13" data-name="Path 13" d="M421.038,298.029v2.9a49.164,49.164,0,0,1-11.558-9.174l-.024-.02q-.377-.478-.712-.968a7.865,7.865,0,0,1,1.875-10.808.516.516,0,0,1,.774.2.5.5,0,0,1,.047.323v0c-.665,4.016,1.941,8.3,6.517,11.5a.208.208,0,0,0,.038.033c.133.086.257.181.38.275A7.313,7.313,0,0,1,421.038,298.029Z" transform="translate(-407.369 -252.012)" fill="#b29e5f"/>
          <path id="Path_14" data-name="Path 14" d="M500.588,301.187V275.353a11.544,11.544,0,0,1,6.576-10.418,33.009,33.009,0,0,0,7.687-4.98,12.142,12.142,0,0,0,1.228-16.894.788.788,0,0,0-.61-.288.812.812,0,0,0-.813.758v.012c-.513,6.264-6.014,11.7-14.069,14.8-.022.009-.047.017-.072.026a11.609,11.609,0,0,0-7.522,10.821v32.86Z" transform="translate(-428.705 -242.771)" fill="#b29e5f"/>
          <path id="Path_15" data-name="Path 15" d="M510.288,280.51v23.174q3.589-.768,6.975-1.8V285.524a10.3,10.3,0,0,1,.115-1.66,10.133,10.133,0,0,1,5.1-7.242,28.937,28.937,0,0,0,6.476-4.765,10.656,10.656,0,0,0,.191-14.865.683.683,0,0,0-.547-.22.717.717,0,0,0-.677.707l0,.008c-.122,5.518-4.654,10.571-11.553,13.7-.017.009-.043.017-.059.026a10.227,10.227,0,0,0-5.985,8.165A11.275,11.275,0,0,0,510.288,280.51Z" transform="translate(-433.015 -246.26)" fill="#b29e5f"/>
          <path id="Path_16" data-name="Path 16" d="M526.059,290.073v13.222q3.317-1.246,6.352-2.728v-6.653a8.537,8.537,0,0,1,3.859-7.331,24.9,24.9,0,0,0,5.26-4.548,9.213,9.213,0,0,0-.839-12.832.6.6,0,0,0-.487-.157.619.619,0,0,0-.534.656v.009c.271,4.764-3.3,9.431-9.033,12.6l-.051.025a8.934,8.934,0,0,0-3.057,2.762A8.716,8.716,0,0,0,526.059,290.073Z" transform="translate(-436.945 -249.317)" fill="#b29e5f"/>
          <path id="Path_17" data-name="Path 17" d="M540.324,298.027v2.9a49.255,49.255,0,0,0,11.558-9.173l.021-.021c.254-.318.491-.64.716-.966a7.867,7.867,0,0,0-1.876-10.808.517.517,0,0,0-.427-.085.525.525,0,0,0-.394.606v0c.665,4.015-1.939,8.3-6.518,11.5a.307.307,0,0,1-.037.03c-.131.089-.254.182-.378.279A7.286,7.286,0,0,0,540.324,298.027Z" transform="translate(-440.499 -252.012)" fill="#b29e5f"/>
        </g>
        <line id="Line_2" data-name="Line 2" x1="0.047" y1="0.323" transform="translate(4.024 46.49)" fill="#fff"/>
        <line id="Line_3" data-name="Line 3" x1="0.057" y1="0.389" transform="translate(6.697 45.175)" fill="#fff"/>
      </g>
      <line id="Line_4" data-name="Line 4" y2="88.528" transform="translate(132.41)" fill="#fff"/>
      <g id="Group_129" data-name="Group 129" transform="translate(151.325 17.307)">
        <g id="Group_127" data-name="Group 127" transform="translate(1.093)">
          <path id="Path_18" data-name="Path 18" d="M635.244,244.532a3.75,3.75,0,0,1,1.659-2.007,5.057,5.057,0,0,1,2.579-.669v4.015a4.238,4.238,0,0,0-2.942.668,3.2,3.2,0,0,0-1.3,2.872v6.663h-3.6V242.135h3.6Z" transform="translate(-615.674 -236.03)" fill="#b29e5f"/>
          <path id="Path_19" data-name="Path 19" d="M654.513,242.1h3.6v13.939h-3.6v-1.645a5.475,5.475,0,0,1-4.544,2.035,6.314,6.314,0,0,1-4.781-2.132,7.85,7.85,0,0,1,0-10.454,6.316,6.316,0,0,1,4.781-2.132,5.476,5.476,0,0,1,4.544,2.035Zm-6.635,9.8a3.712,3.712,0,0,0,2.759,1.1,3.761,3.761,0,0,0,2.774-1.1,4.185,4.185,0,0,0,0-5.659,3.761,3.761,0,0,0-2.774-1.1,3.712,3.712,0,0,0-2.759,1.1,4.225,4.225,0,0,0,0,5.659Z" transform="translate(-618.552 -235.993)" fill="#b29e5f"/>
          <path id="Path_20" data-name="Path 20" d="M722.422,242.1h3.6v13.939h-3.6v-1.645a5.473,5.473,0,0,1-4.544,2.035,6.313,6.313,0,0,1-4.781-2.132,7.85,7.85,0,0,1,0-10.454,6.316,6.316,0,0,1,4.781-2.132,5.474,5.474,0,0,1,4.544,2.035Zm-6.635,9.8a3.714,3.714,0,0,0,2.76,1.1,3.76,3.76,0,0,0,2.773-1.1,4.185,4.185,0,0,0,0-5.659,3.76,3.76,0,0,0-2.773-1.1,3.715,3.715,0,0,0-2.76,1.1,4.226,4.226,0,0,0,0,5.659Z" transform="translate(-635.474 -235.993)" fill="#b29e5f"/>
          <path id="Path_21" data-name="Path 21" d="M743.062,241.707a5.049,5.049,0,0,1,3.778,1.533,5.822,5.822,0,0,1,1.491,4.238v8.558h-3.6v-8.112a2.855,2.855,0,0,0-.752-2.132,2.744,2.744,0,0,0-2.008-.739,2.963,2.963,0,0,0-2.23.864,3.6,3.6,0,0,0-.836,2.593v7.527h-3.6V242.1h3.6v1.561A4.644,4.644,0,0,1,743.062,241.707Z" transform="translate(-641.506 -235.993)" fill="#b29e5f"/>
          <path id="Path_22" data-name="Path 22" d="M772.152,241.707a4.956,4.956,0,0,1,3.833,1.561,5.938,5.938,0,0,1,1.435,4.182v8.586h-3.6V247.7a2.855,2.855,0,0,0-.614-1.951,2.179,2.179,0,0,0-1.728-.7,2.365,2.365,0,0,0-1.91.808,3.537,3.537,0,0,0-.682,2.342v7.834h-3.6V247.7a2.858,2.858,0,0,0-.613-1.951,2.181,2.181,0,0,0-1.728-.7,2.416,2.416,0,0,0-1.909.808,3.441,3.441,0,0,0-.712,2.342v7.834h-3.6V242.1h3.6v1.478a4.344,4.344,0,0,1,3.876-1.868A4.132,4.132,0,0,1,768,243.715,4.723,4.723,0,0,1,772.152,241.707Z" transform="translate(-646.845 -235.993)" fill="#b29e5f"/>
          <path id="Path_23" data-name="Path 23" d="M798.723,242.1h3.6v13.939h-3.6v-1.645a5.475,5.475,0,0,1-4.544,2.035,6.314,6.314,0,0,1-4.781-2.132,7.85,7.85,0,0,1,0-10.454,6.316,6.316,0,0,1,4.781-2.132,5.475,5.475,0,0,1,4.544,2.035Zm-6.635,9.8a3.712,3.712,0,0,0,2.759,1.1,3.763,3.763,0,0,0,2.774-1.1,4.185,4.185,0,0,0,0-5.659,3.763,3.763,0,0,0-2.774-1.1,3.712,3.712,0,0,0-2.759,1.1,4.223,4.223,0,0,0,0,5.659Z" transform="translate(-654.487 -235.993)" fill="#b29e5f"/>
          <path id="Path_24" data-name="Path 24" d="M819.363,241.707a5.047,5.047,0,0,1,3.777,1.533,5.821,5.821,0,0,1,1.491,4.238v8.558h-3.6v-8.112a2.852,2.852,0,0,0-.753-2.132,2.74,2.74,0,0,0-2.007-.739,2.96,2.96,0,0,0-2.23.864,3.593,3.593,0,0,0-.836,2.593v7.527h-3.6V242.1h3.6v1.561A4.644,4.644,0,0,1,819.363,241.707Z" transform="translate(-660.519 -235.993)" fill="#b29e5f"/>
          <path id="Path_25" data-name="Path 25" d="M850.927,244.532a3.755,3.755,0,0,1,1.659-2.007,5.056,5.056,0,0,1,2.579-.669v4.015a4.238,4.238,0,0,0-2.942.668,3.2,3.2,0,0,0-1.3,2.872v6.663h-3.6V242.135h3.6Z" transform="translate(-669.42 -236.03)" fill="#b29e5f"/>
          <g id="Group_126" data-name="Group 126">
            <path id="Path_26" data-name="Path 26" d="M617.648,234.8a6.49,6.49,0,0,1,4.739,1.9,6.6,6.6,0,0,1,0,9.311,6.487,6.487,0,0,1-4.739,1.9h-3.429v6.412h-3.846V234.8Zm0,9.506a2.692,2.692,0,0,0,2.036-.85,3.162,3.162,0,0,0,0-4.223,2.713,2.713,0,0,0-2.036-.836h-3.429v5.91Z" transform="translate(-610.373 -234.272)" fill="#b29e5f"/>
            <path id="Path_27" data-name="Path 27" d="M677.719,234.8h3.6v19.514h-3.6V252.67a5.394,5.394,0,0,1-4.516,2.035,6.345,6.345,0,0,1-4.809-2.132,7.853,7.853,0,0,1,0-10.454,6.348,6.348,0,0,1,4.809-2.132,5.4,5.4,0,0,1,4.516,2.035ZM671.1,250.175a3.761,3.761,0,0,0,2.774,1.1,3.714,3.714,0,0,0,2.759-1.1,4.225,4.225,0,0,0,0-5.659,3.713,3.713,0,0,0-2.759-1.1,3.761,3.761,0,0,0-2.774,1.1,4.185,4.185,0,0,0,0,5.659Z" transform="translate(-624.334 -234.272)" fill="#b29e5f"/>
            <path id="Path_28" data-name="Path 28" d="M698.4,239.986a5.046,5.046,0,0,1,3.777,1.533,5.822,5.822,0,0,1,1.491,4.238v8.558h-3.6V246.2a2.855,2.855,0,0,0-.753-2.132,2.741,2.741,0,0,0-2.007-.739,2.96,2.96,0,0,0-2.23.864,3.591,3.591,0,0,0-.836,2.593v7.527h-3.6V234.8h3.6v7.136A4.643,4.643,0,0,1,698.4,239.986Z" transform="translate(-630.376 -234.272)" fill="#b29e5f"/>
            <path id="Path_29" data-name="Path 29" d="M840.612,244.388h-3.151v5.8a1.377,1.377,0,0,0,.363,1.059,1.661,1.661,0,0,0,1.059.376,15.531,15.531,0,0,0,1.729-.014v3.262q-3.709.418-5.227-.7t-1.519-3.987v-5.8H831.44v-3.457h2.426v-2.815l3.6-1.087v3.9h3.151Z" transform="translate(-665.46 -234.827)" fill="#b29e5f"/>
            <path id="Path_30" data-name="Path 30" d="M862.194,238.528a2.238,2.238,0,0,1-2.2-2.2,2.161,2.161,0,0,1,.655-1.561,2.093,2.093,0,0,1,1.547-.669,2.128,2.128,0,0,1,1.576.669,2.166,2.166,0,0,1,.655,1.561,2.121,2.121,0,0,1-.655,1.547A2.152,2.152,0,0,1,862.194,238.528ZM860.41,254.14V240.2h3.6V254.14Z" transform="translate(-672.575 -234.096)" fill="#b29e5f"/>
          </g>
        </g>
        <g id="Group_128" data-name="Group 128" transform="translate(0 29.82)">
          <path id="Path_31" data-name="Path 31" d="M616.583,294.7a8.714,8.714,0,0,1-4.878-1.3,6.936,6.936,0,0,1-2.789-3.527l3.29-1.924a4.382,4.382,0,0,0,4.488,2.983,3.864,3.864,0,0,0,2.37-.586,1.843,1.843,0,0,0-.167-3.081,14.221,14.221,0,0,0-3.289-1.24,20.077,20.077,0,0,1-2.216-.781,9.529,9.529,0,0,1-1.812-1.045,4.257,4.257,0,0,1-1.379-1.659,5.419,5.419,0,0,1-.475-2.342,5.226,5.226,0,0,1,1.882-4.223,6.829,6.829,0,0,1,4.53-1.575,7.535,7.535,0,0,1,4.168,1.157,7.778,7.778,0,0,1,2.8,3.22l-3.234,1.868a3.9,3.9,0,0,0-3.735-2.509,2.943,2.943,0,0,0-1.882.544,1.718,1.718,0,0,0-.683,1.408,1.776,1.776,0,0,0,.767,1.492,10.732,10.732,0,0,0,2.941,1.24q.893.279,1.352.432t1.255.474a7.639,7.639,0,0,1,1.227.6,9.75,9.75,0,0,1,.99.753,3.863,3.863,0,0,1,.85.975,5.573,5.573,0,0,1,.711,2.76,5.23,5.23,0,0,1-1.966,4.293A7.881,7.881,0,0,1,616.583,294.7Z" transform="translate(-608.917 -273.961)" fill="#b29e5f"/>
          <path id="Path_32" data-name="Path 32" d="M642.55,282.223h3.6v13.938h-3.6v-1.644a5.471,5.471,0,0,1-4.544,2.035,6.316,6.316,0,0,1-4.781-2.132,7.852,7.852,0,0,1,0-10.454,6.318,6.318,0,0,1,4.781-2.132,5.471,5.471,0,0,1,4.544,2.036Zm-6.635,9.8a3.715,3.715,0,0,0,2.76,1.1,3.76,3.76,0,0,0,2.774-1.1,4.187,4.187,0,0,0,0-5.659,3.761,3.761,0,0,0-2.774-1.1,3.715,3.715,0,0,0-2.76,1.1,4.228,4.228,0,0,0,0,5.659Z" transform="translate(-614.477 -275.811)" fill="#b29e5f"/>
          <path id="Path_33" data-name="Path 33" d="M663.19,281.833a5.047,5.047,0,0,1,3.777,1.533,5.822,5.822,0,0,1,1.492,4.238v8.558h-3.6V288.05a2.852,2.852,0,0,0-.753-2.132,2.74,2.74,0,0,0-2.007-.74,2.963,2.963,0,0,0-2.23.864,3.6,3.6,0,0,0-.836,2.593v7.526h-3.6V282.223h3.6v1.561A4.643,4.643,0,0,1,663.19,281.833Z" transform="translate(-620.51 -275.811)" fill="#b29e5f"/>
          <path id="Path_34" data-name="Path 34" d="M687.3,282.223h3.513v13.269a5.94,5.94,0,0,1-2.132,4.935,8,8,0,0,1-5.144,1.7,8.716,8.716,0,0,1-3.973-.864,6.048,6.048,0,0,1-2.635-2.536L680,296.97a4.419,4.419,0,0,0,6.328,1.059,3.264,3.264,0,0,0,.975-2.537v-1.5a5.253,5.253,0,0,1-4.461,2.118,6.582,6.582,0,0,1-4.948-2.077,7.382,7.382,0,0,1,.014-10.106,6.573,6.573,0,0,1,4.934-2.09,5.254,5.254,0,0,1,4.461,2.119Zm-6.7,9.492a4.192,4.192,0,0,0,5.6,0,3.94,3.94,0,0,0,0-5.464,4.192,4.192,0,0,0-5.6,0,3.938,3.938,0,0,0,0,5.464Z" transform="translate(-625.608 -275.811)" fill="#b29e5f"/>
          <path id="Path_35" data-name="Path 35" d="M703.7,284.658a3.759,3.759,0,0,1,1.659-2.007,5.057,5.057,0,0,1,2.579-.67V286a4.236,4.236,0,0,0-2.941.669,3.2,3.2,0,0,0-1.3,2.871V296.2h-3.6V282.26h3.6Z" transform="translate(-631.64 -275.848)" fill="#b29e5f"/>
          <path id="Path_36" data-name="Path 36" d="M722.971,282.223h3.6v13.938h-3.6v-1.644a5.473,5.473,0,0,1-4.544,2.035,6.314,6.314,0,0,1-4.781-2.132,7.85,7.85,0,0,1,0-10.454,6.316,6.316,0,0,1,4.781-2.132,5.473,5.473,0,0,1,4.544,2.036Zm-6.635,9.8a3.713,3.713,0,0,0,2.76,1.1,3.76,3.76,0,0,0,2.773-1.1,4.185,4.185,0,0,0,0-5.659,3.76,3.76,0,0,0-2.773-1.1,3.713,3.713,0,0,0-2.76,1.1,4.225,4.225,0,0,0,0,5.659Z" transform="translate(-634.517 -275.811)" fill="#b29e5f"/>
          <path id="Path_37" data-name="Path 37" d="M743.612,280.112a5.048,5.048,0,0,1,3.777,1.533,5.822,5.822,0,0,1,1.491,4.238v8.558h-3.6v-8.112a2.856,2.856,0,0,0-.753-2.132,2.742,2.742,0,0,0-2.007-.74,2.966,2.966,0,0,0-2.231.864,3.6,3.6,0,0,0-.837,2.593v7.526h-3.6V274.927h3.6v7.136A4.645,4.645,0,0,1,743.612,280.112Z" transform="translate(-640.55 -274.091)" fill="#b29e5f"/>
          <path id="Path_38" data-name="Path 38" d="M767.638,282.223h3.6v13.938h-3.6v-1.644a5.473,5.473,0,0,1-4.545,2.035,6.313,6.313,0,0,1-4.78-2.132,7.85,7.85,0,0,1,0-10.454,6.316,6.316,0,0,1,4.78-2.132,5.474,5.474,0,0,1,4.545,2.036Zm-6.635,9.8a3.712,3.712,0,0,0,2.76,1.1,3.76,3.76,0,0,0,2.774-1.1,4.185,4.185,0,0,0,0-5.659,3.76,3.76,0,0,0-2.774-1.1,3.712,3.712,0,0,0-2.76,1.1,4.223,4.223,0,0,0,0,5.659Z" transform="translate(-645.648 -275.811)" fill="#b29e5f"/>
          <path id="Path_39" data-name="Path 39" d="M780.528,294.163v-20.35h3.6v20.35Z" transform="translate(-651.68 -273.813)" fill="#b29e5f"/>
          <path id="Path_40" data-name="Path 40" d="M800.052,282.223h3.6v13.938h-3.6v-1.644a5.473,5.473,0,0,1-4.544,2.035,6.316,6.316,0,0,1-4.781-2.132,7.852,7.852,0,0,1,0-10.454,6.318,6.318,0,0,1,4.781-2.132,5.474,5.474,0,0,1,4.544,2.036Zm-6.635,9.8a3.715,3.715,0,0,0,2.76,1.1,3.759,3.759,0,0,0,2.774-1.1,4.185,4.185,0,0,0,0-5.659,3.759,3.759,0,0,0-2.774-1.1,3.715,3.715,0,0,0-2.76,1.1,4.226,4.226,0,0,0,0,5.659Z" transform="translate(-653.725 -275.811)" fill="#b29e5f"/>
          <path id="Path_41" data-name="Path 41" d="M821.511,282.353h3.847l-5.082,13.961a9.207,9.207,0,0,1-2.883,4.339,6.615,6.615,0,0,1-4.469,1.213v-3.345a3.617,3.617,0,0,0,2.3-.613,4.286,4.286,0,0,0,1.352-2.063l-5.715-13.492h3.931l3.635,9.368Z" transform="translate(-659.239 -275.941)" fill="#b29e5f"/>
          <path id="Path_42" data-name="Path 42" d="M842.045,282.223h3.6v13.938h-3.6v-1.644a5.473,5.473,0,0,1-4.544,2.035,6.314,6.314,0,0,1-4.781-2.132,7.85,7.85,0,0,1,0-10.454,6.317,6.317,0,0,1,4.781-2.132,5.473,5.473,0,0,1,4.544,2.036Zm-6.635,9.8a3.713,3.713,0,0,0,2.759,1.1,3.761,3.761,0,0,0,2.774-1.1,4.186,4.186,0,0,0,0-5.659,3.761,3.761,0,0,0-2.774-1.1,3.714,3.714,0,0,0-2.759,1.1,4.226,4.226,0,0,0,0,5.659Z" transform="translate(-664.189 -275.811)" fill="#b29e5f"/>
        </g>
      </g>
    </g>
  </g>
</svg>
