<svg width="253" height="56" viewBox="0 0 253 56" fill="none" xmlns="http://www.w3.org/2000/svg">
<g clip-path="url(#clip0_1310_478)">
<path d="M78.912 17.88C82.2187 17.88 84.7787 18.7973 86.592 20.632C88.4053 22.4453 89.312 25.048 89.312 28.44C89.312 31.8107 88.4053 34.4133 86.592 36.248C84.7787 38.0827 82.2187 39 78.912 39H70.752V17.88H78.912ZM78.688 35.48C80.6933 35.48 82.1973 34.8827 83.2 33.688C84.224 32.472 84.736 30.7227 84.736 28.44C84.736 26.1573 84.224 24.4187 83.2 23.224C82.1973 22.008 80.6933 21.4 78.688 21.4H75.168V35.48H78.688ZM95.4183 20.696C94.5009 20.696 93.8183 20.504 93.3703 20.12C92.9223 19.7147 92.6983 19.128 92.6983 18.36C92.6983 17.5707 92.9223 16.984 93.3703 16.6C93.8183 16.1947 94.5009 15.992 95.4183 15.992C96.3356 15.992 97.0183 16.1947 97.4663 16.6C97.9143 16.984 98.1383 17.5707 98.1383 18.36C98.1383 19.128 97.9143 19.7147 97.4663 20.12C97.0183 20.504 96.3356 20.696 95.4183 20.696ZM97.5943 23V39H93.2103V23H97.5943ZM106.562 15.992V34.072C106.562 34.8187 106.69 35.3413 106.946 35.64C107.202 35.9387 107.628 36.088 108.226 36.088C108.588 36.088 108.887 36.0667 109.122 36.024C109.356 35.96 109.655 35.8747 110.018 35.768L109.634 38.648C109.271 38.8613 108.812 39.0213 108.258 39.128C107.724 39.256 107.191 39.32 106.658 39.32C105.1 39.32 103.959 38.9467 103.234 38.2C102.53 37.432 102.178 36.216 102.178 34.552V15.992H106.562ZM114.668 20.696C113.751 20.696 113.068 20.504 112.62 20.12C112.172 19.7147 111.948 19.128 111.948 18.36C111.948 17.5707 112.172 16.984 112.62 16.6C113.068 16.1947 113.751 15.992 114.668 15.992C115.586 15.992 116.268 16.1947 116.716 16.6C117.164 16.984 117.388 17.5707 117.388 18.36C117.388 19.128 117.164 19.7147 116.716 20.12C116.268 20.504 115.586 20.696 114.668 20.696ZM116.844 23V39H112.46V23H116.844ZM121.492 45.72V23H125.428L125.716 28.088L125.172 27.512C125.364 26.5733 125.716 25.7413 126.228 25.016C126.761 24.2907 127.433 23.7253 128.244 23.32C129.054 22.8933 129.961 22.68 130.964 22.68C132.265 22.68 133.428 23.0107 134.452 23.672C135.476 24.3333 136.276 25.2827 136.852 26.52C137.449 27.736 137.748 29.2187 137.748 30.968C137.748 32.7173 137.449 34.2213 136.852 35.48C136.254 36.7173 135.433 37.6667 134.388 38.328C133.364 38.9893 132.19 39.32 130.868 39.32C129.46 39.32 128.286 38.9253 127.348 38.136C126.43 37.3467 125.801 36.3547 125.46 35.16L125.876 34.488V45.72H121.492ZM129.588 35.96C130.761 35.96 131.678 35.544 132.34 34.712C133.022 33.8587 133.364 32.6213 133.364 31C133.364 29.3787 133.033 28.152 132.372 27.32C131.732 26.4667 130.825 26.04 129.652 26.04C128.905 26.04 128.244 26.2427 127.668 26.648C127.113 27.032 126.676 27.5973 126.356 28.344C126.036 29.0693 125.876 29.9547 125.876 31C125.876 32.024 126.025 32.9093 126.324 33.656C126.622 34.4027 127.049 34.9787 127.604 35.384C128.18 35.768 128.841 35.96 129.588 35.96ZM169.991 17.88L160.327 28.856L159.975 28.504L154.695 34.488L154.023 30.392L164.871 17.88H169.991ZM156.199 17.88V39H151.783V17.88H156.199ZM161.543 25.176L170.247 39H165.191L158.151 27.64L161.543 25.176ZM178.122 39.32C177.055 39.32 176.095 39.128 175.242 38.744C174.389 38.36 173.706 37.752 173.194 36.92C172.703 36.0667 172.458 34.968 172.458 33.624V23H176.842V32.568C176.842 33.8053 177.098 34.6693 177.61 35.16C178.122 35.6293 178.858 35.864 179.818 35.864C180.266 35.864 180.703 35.7893 181.13 35.64C181.557 35.4693 181.93 35.2133 182.25 34.872C182.591 34.5307 182.858 34.0933 183.05 33.56C183.242 33.0053 183.338 32.3547 183.338 31.608V23H187.722V39H183.818L183.658 36.216C183.125 37.2827 182.389 38.072 181.45 38.584C180.533 39.0747 179.423 39.32 178.122 39.32ZM192.335 39V23H196.271L196.431 25.88C196.965 24.8133 197.69 24.0133 198.607 23.48C199.546 22.9467 200.581 22.68 201.711 22.68C202.863 22.68 203.898 22.9467 204.815 23.48C205.754 24.0133 206.458 24.8027 206.927 25.848C207.269 25.144 207.727 24.5573 208.303 24.088C208.879 23.6187 209.519 23.2667 210.223 23.032C210.927 22.7973 211.642 22.68 212.367 22.68C213.413 22.68 214.362 22.8933 215.215 23.32C216.09 23.7467 216.783 24.3867 217.295 25.24C217.807 26.0933 218.063 27.1813 218.063 28.504V39H213.679V29.368C213.679 28.1947 213.423 27.3627 212.911 26.872C212.399 26.3813 211.738 26.136 210.927 26.136C210.287 26.136 209.69 26.296 209.135 26.616C208.602 26.936 208.175 27.416 207.855 28.056C207.557 28.6747 207.407 29.4533 207.407 30.392V39H203.023V29.368C203.023 28.1947 202.757 27.3627 202.223 26.872C201.711 26.3813 201.05 26.136 200.239 26.136C199.685 26.136 199.13 26.2853 198.575 26.584C198.042 26.8827 197.594 27.352 197.231 27.992C196.89 28.632 196.719 29.4747 196.719 30.52V39H192.335ZM231.705 28.792C231.705 27.8747 231.439 27.16 230.905 26.648C230.393 26.136 229.711 25.88 228.857 25.88C228.068 25.88 227.375 26.0827 226.777 26.488C226.18 26.8933 225.743 27.5653 225.465 28.504L221.721 27.352C222.084 25.944 222.873 24.8133 224.089 23.96C225.327 23.1067 226.98 22.68 229.049 22.68C230.457 22.68 231.684 22.904 232.729 23.352C233.775 23.7787 234.585 24.4293 235.161 25.304C235.759 26.1787 236.057 27.2773 236.057 28.6V35.096C236.057 35.9067 236.441 36.312 237.209 36.312C237.572 36.312 237.913 36.2587 238.233 36.152L237.977 38.872C237.423 39.1493 236.729 39.288 235.897 39.288C235.151 39.288 234.479 39.16 233.881 38.904C233.284 38.648 232.815 38.264 232.473 37.752C232.132 37.2187 231.961 36.5573 231.961 35.768V35.64L232.729 35.512C232.601 36.3227 232.249 37.016 231.673 37.592C231.097 38.1467 230.393 38.5733 229.561 38.872C228.751 39.1707 227.908 39.32 227.033 39.32C225.945 39.32 225.007 39.16 224.217 38.84C223.428 38.4987 222.82 38.008 222.393 37.368C221.967 36.728 221.753 35.9387 221.753 35C221.753 33.8053 222.137 32.8347 222.905 32.088C223.673 31.32 224.772 30.7973 226.201 30.52L232.217 29.304L232.185 32.024L228.345 32.792C227.62 32.9413 227.065 33.144 226.681 33.4C226.319 33.6347 226.137 34.0293 226.137 34.584C226.137 35.1173 226.329 35.5227 226.713 35.8C227.119 36.0773 227.599 36.216 228.153 36.216C228.601 36.216 229.039 36.1627 229.465 36.056C229.892 35.9493 230.276 35.7787 230.617 35.544C230.959 35.3093 231.225 34.9893 231.417 34.584C231.609 34.1787 231.705 33.688 231.705 33.112V28.792ZM240.96 39V23H244.768L245.056 26.136C245.483 25.0267 246.102 24.1733 246.912 23.576C247.744 22.9787 248.779 22.68 250.016 22.68C250.379 22.68 250.71 22.712 251.008 22.776C251.307 22.84 251.552 22.9253 251.744 23.032L251.232 26.712C251.019 26.6267 250.752 26.5627 250.432 26.52C250.134 26.4773 249.739 26.456 249.248 26.456C248.608 26.456 247.99 26.616 247.392 26.936C246.795 27.2347 246.304 27.704 245.92 28.344C245.536 28.9627 245.344 29.752 245.344 30.712V39H240.96Z" fill="#132238"/>
<circle cx="28" cy="28" r="28" fill="#A53DFF"/>
<path d="M26.5781 19.2344H29.3906V28.0586H31.7227L34.7461 19.2344H37.7227L34.3828 28.0586H34.9805C35.2852 28.0586 35.5625 28.1367 35.8125 28.293C36.0703 28.4492 36.2891 28.6602 36.4688 28.9258C36.6484 29.1914 36.7891 29.5039 36.8906 29.8633C36.9922 30.2148 37.043 30.5938 37.043 31V34.9844H40.1602C40.1289 35.2656 40.0508 35.5273 39.9258 35.7695C39.8086 36.0117 39.6562 36.2266 39.4688 36.4141C39.2891 36.5938 39.082 36.7383 38.8477 36.8477C38.6133 36.9492 38.3672 37 38.1094 37H36.457C36.1523 37 35.8633 36.9219 35.5898 36.7656C35.3242 36.6094 35.0898 36.3984 34.8867 36.1328C34.6836 35.8672 34.5234 35.5547 34.4062 35.1953C34.2891 34.8359 34.2305 34.4531 34.2305 34.0469V30.0273H29.3906V37H26.5781V19.2344Z" fill="white"/>
<path d="M17.8594 25.4922C17.8594 25.0859 17.918 24.707 18.0352 24.3555C18.1602 23.9961 18.3242 23.6836 18.5273 23.418C18.7383 23.1445 18.9805 22.9297 19.2539 22.7734C19.5273 22.6172 19.8203 22.5391 20.1328 22.5391H20.6602V34.9961H26.0859V21.2148H15.5859C15.6094 20.9414 15.6797 20.6836 15.7969 20.4414C15.9219 20.1992 16.0742 19.9883 16.2539 19.8086C16.4414 19.6289 16.6523 19.4883 16.8867 19.3867C17.1211 19.2852 17.3711 19.2344 17.6367 19.2344H26.6367C26.9414 19.2344 27.2305 19.3125 27.5039 19.4688C27.7773 19.6172 28.0117 19.8281 28.207 20.1016C28.4102 20.3672 28.5703 20.6836 28.6875 21.0508C28.8047 21.4102 28.8633 21.7969 28.8633 22.2109V34.0469C28.8633 34.4531 28.8047 34.8359 28.6875 35.1953C28.5703 35.5547 28.4102 35.8672 28.207 36.1328C28.0117 36.3984 27.7773 36.6094 27.5039 36.7656C27.2383 36.9219 26.9531 37 26.6484 37H17.8711L17.8594 25.4922Z" fill="white"/>
</g>
<defs>
<clipPath id="clip0_1310_478">
<rect width="253" height="56" fill="white"/>
</clipPath>
</defs>
</svg>
