<svg width="208" height="56" viewBox="0 0 208 56" fill="none" xmlns="http://www.w3.org/2000/svg">
<path d="M78.912 17.88C82.2187 17.88 84.7787 18.7973 86.592 20.632C88.4053 22.4453 89.312 25.048 89.312 28.44C89.312 31.8107 88.4053 34.4133 86.592 36.248C84.7787 38.0827 82.2187 39 78.912 39H70.752V17.88H78.912ZM78.688 35.48C80.6933 35.48 82.1973 34.8827 83.2 33.688C84.224 32.472 84.736 30.7227 84.736 28.44C84.736 26.1573 84.224 24.4187 83.2 23.224C82.1973 22.008 80.6933 21.4 78.688 21.4H75.168V35.48H78.688ZM95.4183 20.696C94.5009 20.696 93.8183 20.504 93.3703 20.12C92.9223 19.7147 92.6983 19.128 92.6983 18.36C92.6983 17.5707 92.9223 16.984 93.3703 16.6C93.8183 16.1947 94.5009 15.992 95.4183 15.992C96.3356 15.992 97.0183 16.1947 97.4663 16.6C97.9143 16.984 98.1383 17.5707 98.1383 18.36C98.1383 19.128 97.9143 19.7147 97.4663 20.12C97.0183 20.504 96.3356 20.696 95.4183 20.696ZM97.5943 23V39H93.2103V23H97.5943ZM106.562 15.992V34.072C106.562 34.8187 106.69 35.3413 106.946 35.64C107.202 35.9387 107.628 36.088 108.226 36.088C108.588 36.088 108.887 36.0667 109.122 36.024C109.356 35.96 109.655 35.8747 110.018 35.768L109.634 38.648C109.271 38.8613 108.812 39.0213 108.258 39.128C107.724 39.256 107.191 39.32 106.658 39.32C105.1 39.32 103.959 38.9467 103.234 38.2C102.53 37.432 102.178 36.216 102.178 34.552V15.992H106.562ZM114.668 20.696C113.751 20.696 113.068 20.504 112.62 20.12C112.172 19.7147 111.948 19.128 111.948 18.36C111.948 17.5707 112.172 16.984 112.62 16.6C113.068 16.1947 113.751 15.992 114.668 15.992C115.586 15.992 116.268 16.1947 116.716 16.6C117.164 16.984 117.388 17.5707 117.388 18.36C117.388 19.128 117.164 19.7147 116.716 20.12C116.268 20.504 115.586 20.696 114.668 20.696ZM116.844 23V39H112.46V23H116.844ZM121.492 45.72V23H125.428L125.716 28.088L125.172 27.512C125.364 26.5733 125.716 25.7413 126.228 25.016C126.761 24.2907 127.433 23.7253 128.244 23.32C129.054 22.8933 129.961 22.68 130.964 22.68C132.265 22.68 133.428 23.0107 134.452 23.672C135.476 24.3333 136.276 25.2827 136.852 26.52C137.449 27.736 137.748 29.2187 137.748 30.968C137.748 32.7173 137.449 34.2213 136.852 35.48C136.254 36.7173 135.433 37.6667 134.388 38.328C133.364 38.9893 132.19 39.32 130.868 39.32C129.46 39.32 128.286 38.9253 127.348 38.136C126.43 37.3467 125.801 36.3547 125.46 35.16L125.876 34.488V45.72H121.492ZM129.588 35.96C130.761 35.96 131.678 35.544 132.34 34.712C133.022 33.8587 133.364 32.6213 133.364 31C133.364 29.3787 133.033 28.152 132.372 27.32C131.732 26.4667 130.825 26.04 129.652 26.04C128.905 26.04 128.244 26.2427 127.668 26.648C127.113 27.032 126.676 27.5973 126.356 28.344C126.036 29.0693 125.876 29.9547 125.876 31C125.876 32.024 126.025 32.9093 126.324 33.656C126.622 34.4027 127.049 34.9787 127.604 35.384C128.18 35.768 128.841 35.96 129.588 35.96ZM169.991 17.88L160.327 28.856L159.975 28.504L154.695 34.488L154.023 30.392L164.871 17.88H169.991ZM156.199 17.88V39H151.783V17.88H156.199ZM161.543 25.176L170.247 39H165.191L158.151 27.64L161.543 25.176ZM173.054 39V23H176.862L177.15 26.136C177.577 25.0267 178.195 24.1733 179.006 23.576C179.838 22.9787 180.873 22.68 182.11 22.68C182.473 22.68 182.803 22.712 183.102 22.776C183.401 22.84 183.646 22.9253 183.838 23.032L183.326 26.712C183.113 26.6267 182.846 26.5627 182.526 26.52C182.227 26.4773 181.833 26.456 181.342 26.456C180.702 26.456 180.083 26.616 179.486 26.936C178.889 27.2347 178.398 27.704 178.014 28.344C177.63 28.9627 177.438 29.752 177.438 30.712V39H173.054ZM186.325 34.104C187.178 34.104 187.85 34.3387 188.341 34.808C188.853 35.2773 189.109 35.9067 189.109 36.696C189.109 37.5067 188.853 38.1467 188.341 38.616C187.85 39.064 187.178 39.288 186.325 39.288C185.471 39.288 184.789 39.064 184.277 38.616C183.786 38.1467 183.541 37.5067 183.541 36.696C183.541 35.9067 183.786 35.2773 184.277 34.808C184.789 34.3387 185.471 34.104 186.325 34.104Z" fill="white"/>
<circle cx="28" cy="28" r="28" fill="#A53DFF"/>
<path d="M26.5781 19.2344H29.3906V28.0586H31.7227L34.7461 19.2344H37.7227L34.3828 28.0586H34.9805C35.2852 28.0586 35.5625 28.1367 35.8125 28.293C36.0703 28.4492 36.2891 28.6602 36.4688 28.9258C36.6484 29.1914 36.7891 29.5039 36.8906 29.8633C36.9922 30.2148 37.043 30.5938 37.043 31V34.9844H40.1602C40.1289 35.2656 40.0508 35.5273 39.9258 35.7695C39.8086 36.0117 39.6562 36.2266 39.4688 36.4141C39.2891 36.5938 39.082 36.7383 38.8477 36.8477C38.6133 36.9492 38.3672 37 38.1094 37H36.457C36.1523 37 35.8633 36.9219 35.5898 36.7656C35.3242 36.6094 35.0898 36.3984 34.8867 36.1328C34.6836 35.8672 34.5234 35.5547 34.4062 35.1953C34.2891 34.8359 34.2305 34.4531 34.2305 34.0469V30.0273H29.3906V37H26.5781V19.2344Z" fill="white"/>
<path d="M17.8594 25.4922C17.8594 25.0859 17.918 24.707 18.0352 24.3555C18.1602 23.9961 18.3242 23.6836 18.5273 23.418C18.7383 23.1445 18.9805 22.9297 19.2539 22.7734C19.5273 22.6172 19.8203 22.5391 20.1328 22.5391H20.6602V34.9961H26.0859V21.2148H15.5859C15.6094 20.9414 15.6797 20.6836 15.7969 20.4414C15.9219 20.1992 16.0742 19.9883 16.2539 19.8086C16.4414 19.6289 16.6523 19.4883 16.8867 19.3867C17.1211 19.2852 17.3711 19.2344 17.6367 19.2344H26.6367C26.9414 19.2344 27.2305 19.3125 27.5039 19.4688C27.7773 19.6172 28.0117 19.8281 28.207 20.1016C28.4102 20.3672 28.5703 20.6836 28.6875 21.0508C28.8047 21.4102 28.8633 21.7969 28.8633 22.2109V34.0469C28.8633 34.4531 28.8047 34.8359 28.6875 35.1953C28.5703 35.5547 28.4102 35.8672 28.207 36.1328C28.0117 36.3984 27.7773 36.6094 27.5039 36.7656C27.2383 36.9219 26.9531 37 26.6484 37H17.8711L17.8594 25.4922Z" fill="white"/>
</svg>
